<?xml version="1.0" encoding="utf-8"?>

<!DOCTYPE svg PUBLIC "-//W3C//DTD SVG 1.1//EN" "http://www.w3.org/Graphics/SVG/1.1/DTD/svg11.dtd">
<svg version="1.1" id="Layer_1" xmlns="http://www.w3.org/2000/svg" xmlns:xlink="http://www.w3.org/1999/xlink" x="0px" y="0px"
	 viewBox="0 0 1682 1645.978" enable-background="new 0 0 1682 1645.978" xml:space="preserve">
<g>
	<g>
		<path d="M440.981,383.286c-3.862-5.329-5.342-12.021-4.088-18.482C478.991,147.782,677.077-1.051,897.677,26.205
			c218.805,27.745,366.071,215.837,361.827,412.6c-4.819,215.62-163.053,373.815-352.125,398.632
			C738.17,859.603,555.066,774.29,478.717,580.614c98.358,235.988,356.053,305.071,545.198,208.861
			c268.357-137.513,287.54-510.802,39.956-670.417C850.425-18.377,586.641,84.019,502.522,292.187
			c-8.172,20.223-16.769,59.794-21.541,83.639C477.198,394.725,452.6,399.319,440.981,383.286z"/>
	</g>
	<g>
		<path d="M1170.266,335.217c3.875-5.32,9.782-8.795,16.314-9.6c219.409-27.025,422.17,115.374,464.417,333.6
			c41.227,216.669-92.151,414.852-280.596,471.618c-206.556,62.047-405.906-39.557-487.934-211.706
			c-73.369-154.078-48.814-354.583,111.79-487.045c-194.044,166.468-180.114,432.899-30.163,583.055
			c213.71,212.729,574.656,115.62,649.951-169.169c64.75-245.468-114.148-464.7-338.122-480.374
			c-21.759-1.523-62.049,2.529-86.203,5.359C1170.579,373.197,1158.609,351.223,1170.266,335.217z"/>
	</g>
	<g>
		<path d="M1441.344,1013.955c6.257,2.041,11.387,6.585,14.171,12.549c93.504,200.319,20.731,437.16-173.759,544.775
			c-193.325,106.164-423.024,40.556-535.244-121.124c-122.84-177.273-87.81-398.263,50.565-529.473
			c123.864-117.391,322.144-155.997,497.752-44.187c-218.284-133.105-467.369-37.525-563.839,151.487
			c-136.277,268.987,67.618,582.259,361.736,565.864c253.463-14.273,406.682-252.161,352.378-470.017
			c-5.276-21.164-21.579-58.231-31.735-80.328C1405.319,1025.989,1422.52,1007.814,1441.344,1013.955z"/>
	</g>
	<g>
		<path d="M879.594,1481.506c-0.008,6.582-2.744,12.865-7.556,17.356c-161.621,150.829-409.358,154.806-571.806,3.09
			c-160.708-151.057-169.292-389.787-50.204-546.477c130.637-171.608,351.636-206.583,519.185-115.526
			c149.921,81.526,247.91,258.172,195.838,459.736c59.137-248.732-108.737-456.091-318.309-489.431
			c-297.934-46.486-532.867,244.236-426.386,518.893c91.899,236.647,365.491,308.855,555.904,189.888
			c18.498-11.557,48.713-38.517,66.589-55.004C857.017,1450.964,879.617,1461.706,879.594,1481.506z"/>
	</g>
	<g>
		<path d="M261.336,1091.732c-6.262,2.026-13.083,1.366-18.841-1.823C49.103,982.807-31.234,748.424,62.858,547.044
			c94.002-199.522,318.395-281.457,504.217-216.617c203.578,71.213,305.133,270.588,270.309,458.074
			c-31.208,167.777-168.928,315.556-376.718,328.32c254.833-20.62,400.167-244.354,367.114-453.972
			c-47.856-297.717-396.947-431.313-625.257-245.171C5.856,578.206,21.727,860.722,193.712,1005.051
			c16.708,14.021,51.685,34.426,72.889,46.333C283.407,1060.822,280.174,1085.636,261.336,1091.732z"/>
	</g>
	<g>
		<path d="M440.981,383.286c-3.862-5.329-5.342-12.021-4.088-18.482C478.991,147.782,677.077-1.051,897.677,26.205
			c218.805,27.745,366.071,215.837,361.827,412.6c-4.819,215.62-163.053,373.815-352.125,398.632
			C738.17,859.603,555.066,774.29,478.717,580.614c98.358,235.988,356.053,305.071,545.198,208.861
			c268.357-137.513,287.54-510.802,39.956-670.417C850.425-18.377,586.641,84.019,502.522,292.187
			c-8.172,20.223-16.769,59.794-21.541,83.639C477.198,394.725,452.6,399.319,440.981,383.286z"/>
	</g>
</g>
</svg>
